# xmcd CD database file
#
# Track frame offsets:
#	150
#	14538
#	27857
#	40925
#	52517
#	64777
#	77009
#	91276
#	103842
#	114152
#	129031
#	141626
#	155168
#	166537
#	177849
#	191127
#	204877
#	218667
#	233547
#	248690
#
# Disc length: 3512 seconds
#
# Revision: 0
# Processed by: cddbd v1.5.2PL0 Copyright (c) Steve Scherf et al.
# Submitted via: CDex 1.51
#
DISCID=f90db614
DTITLE=Muddy Waters - 20 Legendes du Blues CD 01/20
DYEAR=2008
DGENRE=Blues
TTITLE0=Rolling Stone
TTITLE1=Walking Blues
TTITLE2=Louisiana Blues
TTITLE3=Gypsy Woman
TTITLE4=Good Looking Woman
TTITLE5=I Can't Be Satisfied
TTITLE6=I Feel Like Going Home
TTITLE7=Train Fare Home
TTITLE8=Mean Red Spider
TTITLE9=Streamline Woman
TTITLE10=Little Geneva
TTITLE11=Rollin'n And Tumblin'
TTITLE12=Burying Ground Blues
TTITLE13=Sugar Sweet
TTITLE14=Mannish Boy
TTITLE15=I'm Ready
TTITLE16=I Want You To Love Me
TTITLE17=Still A Fool
TTITLE18=Honey Bee
TTITLE19=Baby Please Don't Go
EXTD=YEAR: 2008
EXTT0=
EXTT1=
EXTT2=
EXTT3=
EXTT4=
EXTT5=
EXTT6=
EXTT7=
EXTT8=
EXTT9=
EXTT10=
EXTT11=
EXTT12=
EXTT13=
EXTT14=
EXTT15=
EXTT16=
EXTT17=
EXTT18=
EXTT19=
PLAYORDER=
